<svg xmlns="http://www.w3.org/2000/svg" version="1.1" xmlns:xlink="http://www.w3.org/1999/xlink" xmlns:svgjs="http://svgjs.dev/svgjs" viewBox="0 0 6.911571962120729 6.622761251123491"><g transform="matrix(1,0,0,1,0.5637764595759895,4.9939847915475015)"><rect width="6.911571962120729" height="6.911571962120729" x="-0.5637764595759895" y="-5.13839014704612" fill="#ffffff"></rect><g><path d=" M 0.0915 1.0649999999999997 L 0.0915 -2.220446049250313e-16 L 0.5505 -2.220446049250313e-16 Q 0.6285000000000001 -2.220446049250313e-16 0.6945 0.03149999999999964 Q 0.7605000000000001 0.06299999999999972 0.8085 0.11624999999999974 Q 0.8565 0.16949999999999965 0.88275 0.2354999999999997 Q 0.909 0.30149999999999966 0.909 0.36899999999999966 Q 0.909 0.4634999999999997 0.86475 0.5474999999999998 Q 0.8205 0.6314999999999997 0.74175 0.6847499999999997 Q 0.663 0.7379999999999998 0.558 0.7379999999999998 L 0.384 0.7379999999999998 L 0.384 1.0649999999999997 L 0.0915 1.0649999999999997 M 0.384 0.48299999999999976 L 0.5385 0.48299999999999976 Q 0.5565 0.48299999999999976 0.5730000000000001 0.4724999999999997 Q 0.5895 0.46199999999999974 0.60075 0.43649999999999967 Q 0.612 0.4109999999999997 0.612 0.36899999999999966 Q 0.612 0.32399999999999973 0.5992500000000001 0.2992499999999997 Q 0.5865 0.27449999999999974 0.56775 0.2647499999999997 Q 0.549 0.25499999999999967 0.531 0.25499999999999967 L 0.384 0.25499999999999967 L 0.384 0.48299999999999976 M 1.972478759765625 -2.220446049250313e-16 L 1.972478759765625 1.0649999999999997 L 1.6799787597656248 1.0649999999999997 L 1.6799787597656248 0.6479999999999997 L 1.322978759765625 0.6479999999999997 L 1.322978759765625 1.0649999999999997 L 1.0304787597656249 1.0649999999999997 L 1.0304787597656249 -2.220446049250313e-16 L 1.322978759765625 -2.220446049250313e-16 L 1.322978759765625 0.3929999999999997 L 1.6799787597656248 0.3929999999999997 L 1.6799787597656248 -2.220446049250313e-16 L 1.972478759765625 -2.220446049250313e-16 M 2.159978759765625 1.0649999999999997 L 2.159978759765625 -2.220446049250313e-16 L 2.452478759765625 -2.220446049250313e-16 L 2.452478759765625 1.0649999999999997 L 2.159978759765625 1.0649999999999997 M 2.640003662109375 1.0649999999999997 L 2.640003662109375 -2.220446049250313e-16 L 2.932503662109375 -2.220446049250313e-16 L 2.932503662109375 0.8099999999999997 L 3.415503662109375 0.8099999999999997 L 3.415503662109375 1.0649999999999997 L 2.640003662109375 1.0649999999999997 M 3.5220366210937497 1.0649999999999997 L 3.5220366210937497 -2.220446049250313e-16 L 3.8145366210937497 -2.220446049250313e-16 L 3.8145366210937497 1.0649999999999997 L 3.5220366210937497 1.0649999999999997 M 4.0020615234375 1.0649999999999997 L 4.0020615234375 -2.220446049250313e-16 L 4.4610615234375 -2.220446049250313e-16 Q 4.5390615234375 -2.220446049250313e-16 4.6050615234375 0.03149999999999964 Q 4.6710615234375 0.06299999999999972 4.7190615234374995 0.11624999999999974 Q 4.7670615234375 0.16949999999999965 4.7933115234375 0.2354999999999997 Q 4.8195615234375 0.30149999999999966 4.8195615234375 0.36899999999999966 Q 4.8195615234375 0.4634999999999997 4.7753115234375 0.5474999999999998 Q 4.7310615234375 0.6314999999999997 4.6523115234375 0.6847499999999997 Q 4.5735615234375 0.7379999999999998 4.4685615234375 0.7379999999999998 L 4.2945615234375 0.7379999999999998 L 4.2945615234375 1.0649999999999997 L 4.0020615234375 1.0649999999999997 M 4.2945615234375 0.48299999999999976 L 4.4490615234375 0.48299999999999976 Q 4.4670615234375 0.48299999999999976 4.4835615234375 0.4724999999999997 Q 4.5000615234375 0.46199999999999974 4.5113115234375 0.43649999999999967 Q 4.5225615234375 0.4109999999999997 4.5225615234375 0.36899999999999966 Q 4.5225615234375 0.32399999999999973 4.5098115234375005 0.2992499999999997 Q 4.4970615234375 0.27449999999999974 4.4783115234375 0.2647499999999997 Q 4.4595615234375 0.25499999999999967 4.4415615234375 0.25499999999999967 L 4.2945615234375 0.25499999999999967 L 4.2945615234375 0.48299999999999976 M 4.941040283203125 1.0649999999999997 L 4.941040283203125 -2.220446049250313e-16 L 5.400040283203126 -2.220446049250313e-16 Q 5.478040283203125 -2.220446049250313e-16 5.544040283203125 0.03149999999999964 Q 5.6100402832031255 0.06299999999999972 5.658040283203125 0.11624999999999974 Q 5.706040283203125 0.16949999999999965 5.732290283203125 0.2354999999999997 Q 5.758540283203125 0.30149999999999966 5.758540283203125 0.36899999999999966 Q 5.758540283203125 0.4634999999999997 5.714290283203125 0.5474999999999998 Q 5.670040283203125 0.6314999999999997 5.591290283203125 0.6847499999999997 Q 5.512540283203125 0.7379999999999998 5.407540283203125 0.7379999999999998 L 5.2335402832031255 0.7379999999999998 L 5.2335402832031255 1.0649999999999997 L 4.941040283203125 1.0649999999999997 M 5.2335402832031255 0.48299999999999976 L 5.388040283203125 0.48299999999999976 Q 5.406040283203125 0.48299999999999976 5.4225402832031255 0.4724999999999997 Q 5.439040283203125 0.46199999999999974 5.450290283203125 0.43649999999999967 Q 5.461540283203125 0.4109999999999997 5.461540283203125 0.36899999999999966 Q 5.461540283203125 0.32399999999999973 5.448790283203126 0.2992499999999997 Q 5.436040283203125 0.27449999999999974 5.417290283203125 0.2647499999999997 Q 5.3985402832031255 0.25499999999999967 5.380540283203125 0.25499999999999967 L 5.2335402832031255 0.25499999999999967 L 5.2335402832031255 0.48299999999999976" fill="#382d5e" fill-rule="nonzero"></path></g><g></g><g clip-path="url(#SvgjsClipPath1003)"><g clip-path="url(#a1f997a0f-3223-4f1d-87fa-4321650129feca23a625-cd42-45cf-8214-9dadc13a4f5d)"><path d=" M 4.500662744201049 -2.368822594148321 C 4.500662744201049 -1.4803986729539957 3.780427181294417 -0.7601631100473631 2.892003260100092 -0.7601631100473631 C 2.003579338905767 -0.7601631100473631 1.2833662580681464 -1.4803986729539957 1.2833662580681464 -2.368822594148321 C 1.2833662580681464 -3.2572689974116598 2.003579338905766 -3.977482078249279 2.892003260100091 -3.977482078249279 C 3.780427181294417 -3.977482078249279 4.500662744201049 -3.2572689974116598 4.500662744201049 -2.368822594148321" fill="#c84449" transform="matrix(1,0,0,1,0,0)" fill-rule="nonzero"></path></g><g clip-path="url(#a1f997a0f-3223-4f1d-87fa-4321650129feca23a625-cd42-45cf-8214-9dadc13a4f5d)"><path d=" M 5.010218838385056 -2.9507484684857936 L 4.869526050500497 -2.9507484684857936 C 4.618311411347085 -3.805764035126515 3.828291506223503 -4.430203501967934 2.892003260100091 -4.430203501967934 C 2.820847511673337 -4.430203501967934 2.750523599800071 -4.426606370925824 2.6812338631014123 -4.419569483324695 C 2.6125282449331864 -4.41259549924413 2.544216507187169 -4.402173157006739 2.4765571068053065 -4.38834188946537 C 2.433732060692831 -4.3794008495894 2.3912041860594115 -4.369091289007427 2.349038811362474 -4.357429044572229 C 2.052740828673266 -4.276587796906813 1.7783439813770197 -4.130327831657046 1.5460467524182877 -3.929415414699074 C 1.507574944606393 -3.896472549340295 1.470326988057822 -3.862126738792187 1.4343783156297705 -3.8264475386186625 C 1.408003806867405 -3.799949426351016 1.3823499037092863 -3.772743694451305 1.3574446754666236 -3.7448601101697854 C 1.2594088026084231 -3.6353675893459254 1.17327673074528 -3.515774462353517 1.1004971087148392 -3.388092156999427 C 1.085471344046335 -3.3617305525360406 1.0710342794349443 -3.3350377243526754 1.0571966437954319 -3.30803350924345 C 0.9984874110016837 -3.193692193643373 0.9506961244034953 -3.0740671933884665 0.9144579876306733 -2.9507484684857967 L 0.7737651997461135 -2.9507484684857967 C 0.5612871655024312 -2.9507484684857936 0.38743332582341483 -2.776894628806777 0.38743332582341483 -2.564439076632108 L 0.38743332582341483 -2.226398686949747 C 0.38743332582341483 -2.013920652706065 0.5612871655024312 -1.8400892950960612 0.7737651997461135 -1.8400892950960612 L 0.8993500372538064 -1.8400892950960612 C 1.1226194646238206 -0.9965620657210814 1.867068215857661 -0.3654004602447163 2.7672502591458863 -0.31160086909614737 C 2.7969844496160365 -0.27277460272955256 2.843099262026172 -0.2500039078288907 2.892003260100091 -0.25 C 2.978253146769407 -0.25103049695640767 3.0476308783720367 -0.32124209193316844 3.0476308783720376 -0.4074981344719202 C 3.0476308783720376 -0.49375417701067104 2.978253146769408 -0.5639657719874323 2.8920032601000925 -0.5649962689438395 C 2.8468553732350097 -0.5650135581860485 2.803887975762391 -0.5455819725225504 2.7740848081258966 -0.5116688012445465 C 1.7864250343073398 -0.5734720089618128 1.0075337533452888 -1.4051062238288141 1.0312748182232192 -2.4136968038986533 C 1.0544987955138467 -3.401064310820038 1.8597615434283736 -4.206304576665552 2.8471065682807457 -4.2295510360251924 C 3.8955578567109743 -4.254236347801678 4.753248789564266 -3.4116983294632783 4.753248789564266 -2.368822594148321 C 4.7532720597887685 -2.1898071699099373 4.727451121067322 -2.011725986083012 4.676584934229137 -1.8400892950955807 L 5.010218838385056 -1.8400892950955807 C 5.222696872628736 -1.8400892950960612 5.396550712307754 -2.013920652706065 5.396550712307754 -2.226398686949747 L 5.396550712307754 -2.564439076632108 C 5.396550712307754 -2.776894628806777 5.222696872628736 -2.9507484684857936 5.010218838385056 -2.9507484684857936" fill="#e37f7c" transform="matrix(1,0,0,1,0,0)" fill-rule="nonzero"></path></g><g clip-path="url(#a1f997a0f-3223-4f1d-87fa-4321650129feca23a625-cd42-45cf-8214-9dadc13a4f5d)"><path d=" M 4.362398019769916 -2.3636292362062736 L 4.500640262132036 -2.368800112079308 L 4.362398019769916 -2.373970987952342 L 4.322514829340513 -2.3750950914030016 C 4.321075976923668 -2.5821099828764775 4.28510466650256 -2.7890124640048874 4.215927340148967 -2.982448185794395 C 4.244929209175986 -2.9821559188972238 4.271660389232672 -2.9818186878620256 4.29524407962751 -2.981391528550775 C 4.330023840390918 -2.9811891899296565 4.358216354933463 -2.9809643692395245 4.37982162325514 -2.9807845126874186 C 4.379282053598823 -2.982065990621171 4.378809930149546 -2.9833924326929493 4.378292842562243 -2.984651428557688 C 4.356979841137736 -2.986517440285783 4.329416824527563 -2.988878057532168 4.295671238938761 -2.9917332802968435 C 4.270423875436945 -2.9935768099559255 4.241556898824006 -2.995780052719218 4.210126966343564 -2.9981406699656032 C 4.181020306196124 -3.077540285707213 4.146046591985126 -3.154664314273492 4.105495417156166 -3.228874144247997 C 4.034542007350531 -3.358550718316091 3.9469293844061197 -3.4778405765000904 3.8454678069495825 -3.581437950512881 C 3.8370595131386485 -3.5900036188069073 3.8283814344995557 -3.598232056065736 3.81974831999849 -3.606527939531604 C 3.8576306062857193 -3.6039649836641 3.8911738532534024 -3.6015594022796886 3.919029136760748 -3.599131338826264 L 3.9287863547124733 -3.598389430548828 C 3.9242000126337824 -3.602256346419097 3.9197935271071964 -3.6063480829794985 3.915162220890479 -3.610170034711741 C 3.882181025648126 -3.6154982850678676 3.8419156400454977 -3.622197941633799 3.7956700240853607 -3.629234829234928 C 3.75953778126562 -3.6623273763358086 3.721963717500172 -3.6938103760610206 3.6830573403982796 -3.7235920728832976 C 3.625907920966745 -3.76664523504356 3.5655885298043497 -3.804370146847697 3.5038752503631363 -3.8381606965745254 C 3.4430612536824508 -3.8706248042295757 3.3801339425145254 -3.8975133587693533 3.3164647230691644 -3.9204450691628097 C 3.1781483074830765 -3.958269477121274 3.035398226585841 -3.977443958326538 2.8920032601000916 -3.9774595961802657 C 2.7492029994699174 -3.9774466074443446 2.607038830470253 -3.95843997476698 2.469250434376019 -3.9209396746811 C 2.4050416452743435 -3.8978730718735646 2.3415073182430612 -3.870782178712668 2.2801762339750726 -3.8380258041604463 C 2.2184854366028723 -3.804235254433618 2.1581660454404767 -3.766510342629481 2.101039108077955 -3.7234571804692176 C 2.0621831012074763 -3.6937062396878555 2.0246542490954926 -3.6622609172706184 1.988561316804955 -3.629212347165916 C 1.9421808084307375 -3.6221754595647857 1.901825494552057 -3.6154758029988545 1.8687543710336512 -3.6101475526427276 C 1.8641455468859467 -3.6063480829794985 1.8597840254973874 -3.602256346419097 1.8552201654877092 -3.5984119126178413 L 1.8649549013704216 -3.599153820895277 C 1.8929001131538195 -3.6015818843487013 1.926555770466569 -3.6040324298711397 1.964572949167877 -3.6066178678076564 C 1.9558723884597715 -3.598254538134749 1.9471268636136398 -3.589936172599868 1.9386286415266534 -3.581325540167815 C 1.8370321716560363 -3.477885540638117 1.749554441125705 -3.358483272109052 1.6785560671820432 -3.2288516621789842 C 1.6379979213469535 -3.1546407256983535 1.6030312445358905 -3.077508129354328 1.5739470000636588 -2.998095705827577 C 1.5424721034451891 -2.995735088581192 1.513582644763237 -2.993554327886912 1.4883127991924086 -2.9917107982278304 C 1.4545672136036067 -2.988878057532168 1.4270041969934328 -2.98649495821677 1.4056911955689262 -2.984651428557688 C 1.4051516259126098 -2.983369950623936 1.4047019845323456 -2.982065990621171 1.4041624148760292 -2.980806994756432 C 1.4257452011286942 -2.9809868513085376 1.45396019774025 -2.981211671998669 1.4887399585036591 -2.981414010619788 C 1.512346130967511 -2.981863652000052 1.5390997930932098 -2.9821784009662364 1.5681466262582546 -2.9824706678634083 C 1.4989917819736749 -2.7890349460739006 1.4630429536215797 -2.5821099828764775 1.4614916908596693 -2.3750726093339884 L 1.4215860183612525 -2.373948505883329 L 1.2833212939301193 -2.368800112079308 L 1.4215860183612525 -2.3636517182752868 C 1.4348885655475236 -2.3633086853885046 1.4481904783459667 -2.3629414776549154 1.4614916908585185 -2.3625500968936723 C 1.4629080612075 -2.1555127233511513 1.498879371628608 -1.9485652780847147 1.5680566979822013 -1.7551295562952074 C 1.539054828955183 -1.755444305261392 1.5123236488984972 -1.7557590542275765 1.4887399585036583 -1.756186213538827 C 1.4539601977402496 -1.7564110342289592 1.4257452011286933 -1.7566133728500781 1.4041624148760283 -1.756815711471197 C 1.4046795024633318 -1.7555342335374449 1.405151625912609 -1.7542302735346795 1.4056911955689257 -1.7529712776699409 C 1.4270041969934324 -1.7511052659418458 1.4545672136036063 -1.7487446486954603 1.4883127991924077 -1.7458894259307853 C 1.5135601626942232 -1.744068378340717 1.542427139307162 -1.7418876176464368 1.5738570717876053 -1.7395270004000514 C 1.6029540159991693 -1.6601016423304005 1.637927997182739 -1.5829544805705096 1.6784886209750032 -1.508726079910617 C 1.7494420307806382 -1.3790495058425245 1.8370546537250487 -1.2597596476585253 1.9385162311815864 -1.1561622736457342 C 1.9469470070615333 -1.1475966053517084 1.9556475677696392 -1.1393456860238667 1.9643031643397184 -1.1310273204889851 C 1.926375913914463 -1.1335902763564891 1.8928326669467794 -1.1360183398099144 1.8649549013704207 -1.1384464032633383 L 1.8552201654877083 -1.1391883115407744 C 1.8597840254973865 -1.1353438777395182 1.8641455468859462 -1.1312746232481299 1.8687543710336503 -1.1274751535849012 C 1.9017580483450167 -1.1221469032287743 1.942000951878631 -1.1154697287318558 1.9882465678387684 -1.10845532319974 C 2.024385095537574 -1.0753219765042776 2.0619824464298215 -1.0438158165387077 2.1009266977328895 -1.0140306333443312 C 2.158076117164424 -0.9709549891150555 2.218395508326819 -0.9332525593799312 2.280086305699019 -0.8994620096531034 C 2.3409227844487175 -0.8669754199290405 2.4038950597546695 -0.8400868653892619 2.467541797131017 -0.8171551549958056 C 2.605857891230673 -0.7793291629868966 2.7486081857016305 -0.7601546530939753 2.892003260100087 -0.76014062797835 C 3.0383390473069602 -0.7601406279783496 3.179953600021059 -0.7800597411240378 3.3146886396171213 -0.8166605494775152 C 3.378919910787812 -0.8397271522850507 3.442454237819094 -0.8668180454459473 3.5038078041560956 -0.8995969020671826 C 3.565498601528296 -0.9333874517940108 3.625817992690691 -0.9711123635981473 3.682944930053213 -1.0141655257584112 C 3.7217762153439837 -1.0438796349233335 3.7592754168074927 -1.0752952491920218 3.7953327930501604 -1.10832043078566 C 3.8417357834933914 -1.1153798004558033 3.882113579441085 -1.1220794570217345 3.9151622208904775 -1.1274301894468746 C 3.919816009176208 -1.1312521411791177 3.924200012633781 -1.1353438777395182 3.9287863547124724 -1.1392332756788006 L 3.919029136760747 -1.138468885332352 C 3.885869265224099 -1.1356879904869337 3.852684302714906 -1.133214856424594 3.8194785351703517 -1.131049802558 C 3.8281341317404096 -1.139413132230906 3.8368796565865413 -1.1476865336277609 3.845332914535502 -1.1562971660598138 C 3.9469518664751315 -1.2597371655895118 4.034429597005463 -1.379139434118577 4.105427970949125 -1.5087710440486446 C 4.145971780987676 -1.5829736103695495 4.180938003646114 -1.6600901753643655 4.210037038067508 -1.739482036262022 C 4.241511934685979 -1.7418426535084102 4.270401393367932 -1.7440458962717034 4.295671238938759 -1.7458669438617718 C 4.329416824527561 -1.7487221666264472 4.356979841137735 -1.7511052659418458 4.378292842562242 -1.7529487956009273 C 4.378832412218558 -1.754230273534679 4.379282053598823 -1.7555342335374449 4.379821623255139 -1.7568157114711966 C 4.358216354933461 -1.7566358549190908 4.330023840390918 -1.7564110342289587 4.295244079627508 -1.7562086956078402 C 4.268776631742879 -1.755760990910245 4.242307542160421 -1.7554162632429757 4.215837411872949 -1.7551745204332345 C 4.284992256157494 -1.9485877601537283 4.320941084509589 -2.1554902412821377 4.322492347271499 -2.3625051327556137 C 4.336476194197705 -2.3629322920668643 4.349920471467594 -2.363314487240089 4.362398019769916 -2.3636292362062736 M 4.2694346644003645 -2.376736282440965 C 4.193490235273801 -2.3790968996873496 4.101875804045042 -2.382019568659065 3.9979411989970535 -2.3840654369392653 C 3.91763524848193 -2.385908966598347 3.8300451076065323 -2.3875726397053234 3.7373965012031665 -2.3889890100531543 C 3.735013401887768 -2.5907655794465567 3.714667129430829 -2.7925421488399587 3.672648142445172 -2.987843882357561 C 3.7706924454117043 -2.9868996354590074 3.8631162311249385 -2.98593290649144 3.947221651303291 -2.9850785878689385 C 4.027527601818415 -2.9839994485563053 4.100054756454973 -2.9834598788999886 4.163386744865137 -2.982920309243672 C 4.233148605013072 -2.7901590495245605 4.268872612675035 -2.5834139428792424 4.2694346644003645 -2.376736282440965 M 3.456280710262208 -3.036562525909149 C 3.3662400238643726 -3.0389231431555346 3.2732092222877824 -3.040969011435735 3.178672122087308 -3.042610202473698 C 3.1611585903260306 -3.04283502316383 3.1433752737365963 -3.042969915577909 3.1257942957682796 -3.0431497721300147 C 3.1123050543603643 -3.2277950049353636 3.093037921216058 -3.409405158423932 3.062304932875024 -3.584090834656438 C 3.058910140454032 -3.6028858443514666 3.0553130094119214 -3.621545961632416 3.0516933963007977 -3.6401835968443526 C 3.0682851632325336 -3.6399362940852074 3.0850118225783487 -3.6398014016711286 3.101513661234032 -3.6394641706359305 C 3.170623541380585 -3.6384974416683633 3.238631800145493 -3.636676394078295 3.3044368161471067 -3.634135920279804 C 3.3284251837841827 -3.633281601657303 3.3519863921100086 -3.632359836827762 3.3753452618147155 -3.6313931078601946 C 3.3870359377015755 -3.613182631959509 3.3986816494504093 -3.5949496739898095 3.4095180067147677 -3.5760422539497148 C 3.4384524295347467 -3.5264917738446386 3.463947095795707 -3.4744008199410716 3.487193555155348 -3.4209609418967135 C 3.53424852559996 -3.3142835244291153 3.5716811705069254 -3.201715804880061 3.600772967809996 -3.0860230777381727 C 3.6053593098886876 -3.0679250121825525 3.6093836002420487 -3.0496246080058143 3.613565265078502 -3.031369167967102 C 3.562373593935463 -3.033280143833223 3.509945408996699 -3.0350337452162526 3.456280710262208 -3.0365625259091495 M 3.6232775188922015 -2.988293523737825 C 3.664442187255357 -2.7933739853934467 3.6832821610884126 -2.5914625235859656 3.6844512286770983 -2.3897983645376293 C 3.6192757106078535 -2.3907201293671703 3.551851985637289 -2.3915294838516457 3.482674659283696 -2.3922264279910546 L 3.1920489531501577 -2.3944746348923736 L 3.149580324784237 -2.3946095273064527 C 3.1484787034025907 -2.5934409456591263 3.1433303095985696 -2.7922498819427872 3.129998442673746 -2.9876415437364425 L 3.1296836937075616 -2.9914634954686856 C 3.1458483013280474 -2.991396049261646 3.1621702834316245 -2.9913735671926327 3.178222480707044 -2.9912836389165802 C 3.2726471705624522 -2.991171228571514 3.365565561793977 -2.9906541409842102 3.4554938378467464 -2.9897323761546692 C 3.512823113830387 -2.989305216843419 3.5687585015352097 -2.9888106113251287 3.6232775188922015 -2.988293523737825 M 2.891980778031078 -2.3422263065057143 L 3.0965900881201427 -2.3428558044380834 C 3.096747462603235 -2.144991115052977 3.091037017073884 -1.947306282219976 3.081324763260185 -1.7528813493938875 L 3.080875121879921 -1.7459568721378247 C 3.017910531175321 -1.7457507324692227 2.954945459738381 -1.7457357443541501 2.891980778030853 -1.7459119079998011 C 2.828873610311047 -1.7457095693786795 2.7659238170741087 -1.7457770155857188 2.7032213265963145 -1.7459568721378247 L 2.702794167285064 -1.7528813493938875 C 2.692657572390528 -1.9493769479004999 2.6875299962645434 -2.1460989547690246 2.6874164320800404 -2.342855804438087 L 2.891980778031078 -2.3422263065057143 M 2.6873939500110273 -2.394744419720532 C 2.6872365755279346 -2.592474216691559 2.6929470210572855 -2.790316424007653 2.702659274870985 -2.9847413568337404 C 2.7027941672850644 -2.9870570099420997 2.7029740238371693 -2.989350180981445 2.7030864341822354 -2.991665834089804 C 2.765833888798056 -2.9918456906419095 2.828828646173021 -2.9918906547799358 2.8919807780310784 -2.9916883161588173 C 2.955110427820123 -2.9918906547799358 3.0180602210570617 -2.9918232085728964 3.0807627115348555 -2.991643352020791 L 3.081189870846106 -2.9847188747647273 C 3.091037017073884 -2.790293941938639 3.0966575343271825 -2.5926315911746514 3.0965676060511296 -2.394766901789545 L 2.8919807780310784 -2.395373917652901 L 2.6873939500110278 -2.394744419720532 M 3.0596970128694942 -3.2858212250584136 C 3.0669587211607556 -3.2059873979925673 3.0727141308281327 -3.1250519495450746 3.0775702577349824 -3.043644377648305 C 3.0159244245008088 -3.0441839473046217 2.95403128850749 -3.0446560707538985 2.892003260100092 -3.0448359273060044 C 2.8299077854856547 -3.0446335886848854 2.768014649492336 -3.0441839473046217 2.7063238521201356 -3.0436218955792915 C 2.717362548005613 -3.226108849759375 2.732515462520505 -3.4056956170367556 2.7582799136096234 -3.578065640160902 C 2.7615398136165363 -3.599063892619224 2.765002052244568 -3.6199272526634667 2.7685991832866788 -3.6407456485696827 C 2.8096064771667413 -3.641172807880933 2.8507486634608843 -3.641375146502052 2.892003260100092 -3.6411952899499465 C 2.9331679284632477 -3.6413751465020523 2.974265150619363 -3.6411503258119198 3.0152499624304134 -3.6407231665006696 C 3.0188470934725236 -3.6199272526634667 3.0222868500315423 -3.5990414105502104 3.0255467500384547 -3.5780206760228754 C 3.04022754110407 -3.482674221337927 3.0508165956092834 -3.3848997031995527 3.0596970128694942 -3.2858212250584136 M 2.7218364797392387 -3.5840683525874244 C 2.691193419674257 -3.4093826763549195 2.671791394115872 -3.2277950049353636 2.6583246347769696 -3.043127290061001 C 2.640676210601614 -3.0429474335088957 2.6228704119431656 -3.0428125410948166 2.6053343981128756 -3.0425877204046845 C 2.512789443307628 -3.0409777467396077 2.4202522900374213 -3.0389468454976125 2.3277258099379856 -3.036495079702112 C 2.2752452351523105 -3.034988319570779 2.222771573890013 -3.033249689263318 2.170306362707646 -3.031279239691049 C 2.174510509613069 -3.0495571617987745 2.178534799966431 -3.0679250121825525 2.183143624114135 -3.086045559807186 C 2.212167975210166 -3.201760769018087 2.2497579946002237 -3.314261042360102 2.296610626423717 -3.421028388103753 C 2.319857085783358 -3.4744682661481114 2.345374234113331 -3.526581702120691 2.374331139002323 -3.5761321822257672 C 2.385167496266682 -3.5950171201968493 2.396813208015516 -3.6132725602355613 2.4084814018333627 -3.631460554067234 C 2.431885235676096 -3.6324272830348012 2.455513890208961 -3.633349047864342 2.479547221984064 -3.6342033664868434 C 2.545352237985678 -3.636721358216321 2.613382978819598 -3.6385199237373764 2.6824703768971387 -3.6394866527049436 C 2.699039661759861 -3.639846365809155 2.7158112852437033 -3.639958776154221 2.7324480163134655 -3.6402060789133657 C 2.728828403202341 -3.621545961632416 2.7252312721602308 -3.602885844351466 2.7218364797392387 -3.5840683525874244 M 2.3284902002844237 -2.989799822361709 C 2.4184184763371936 -2.9906991051222365 2.5113368675687178 -2.9912161927095395 2.605761557424126 -2.991306120985593 C 2.6218812009065853 -2.9913960492616454 2.638225665079176 -2.9914185313306585 2.654412754768675 -2.991485977537698 L 2.654120487871503 -2.9876415437364425 C 2.640653728532601 -2.7922049178047605 2.635595263004632 -2.5935758380732055 2.634403713346934 -2.394587045237439 L 2.5919350849810128 -2.39445215282336 L 2.301309378847474 -2.3921589817840143 C 2.2321320524938812 -2.3914620376446054 2.164685845454304 -2.3906302010911173 2.099510327385059 -2.3897084362615764 C 2.100499538421639 -2.5910128822057015 2.1194294405307477 -2.79332902125542 2.160639073031929 -2.9883834520138777 C 2.2151805724579336 -2.988878057532168 2.271115960162757 -2.989372663050458 2.3284902002844237 -2.989799822361709 M 2.3013093788474737 -2.3454637244436136 L 2.5919350849810128 -2.3431480713352553 C 2.605986378114258 -2.343103107197228 2.620284974006648 -2.3430806251282155 2.634403713346933 -2.3430131789211757 C 2.6354828526595666 -2.144316652982581 2.640653728532601 -1.945350342215828 2.6539855954574234 -1.7499586804221727 C 2.654075523733476 -1.748677202488421 2.6542104161475555 -1.7474182066236819 2.6542778623545953 -1.7461367286899296 C 2.638135736803123 -1.7462041748969694 2.6218362367685586 -1.7462041748969694 2.6057615574241257 -1.7463165852420355 C 2.5113368675687178 -1.7464065135180884 2.4184184763371936 -1.7469236011053915 2.3284902002844237 -1.7478004017969062 C 2.271160924300783 -1.74825004317717 2.21522553659596 -1.7487446486954599 2.1607290013079816 -1.7492392542137507 C 2.119564332944826 -1.9441363104891156 2.1007018770427575 -2.145755505399425 2.0995328094540717 -2.3478917878970385 C 2.164708327523317 -2.3469700230674975 2.2321320524938812 -2.3461381865140094 2.3013093788474737 -2.3454637244436136 M 2.327725809937975 -1.7011051444565055 C 2.4177215321977843 -1.698722045141107 2.510774815843388 -1.6966536947918933 2.6053343981128756 -1.6950125037539303 C 2.622825447805139 -1.6947876830637978 2.6406087643945746 -1.6946752727187322 2.6581897423628904 -1.6944729340976132 C 2.671656501701793 -1.5098277012922638 2.6909461169151117 -1.3281950657346826 2.721679105256146 -1.1535093895021769 C 2.725073897677138 -1.1347143798071482 2.7286710287192486 -1.116054262526199 2.7323131238993854 -1.0973941452452487 C 2.7156988748986364 -1.097641448004394 2.698972215552821 -1.097776340418473 2.6824703768971383 -1.0981135714536707 C 2.613382978819598 -1.099080300421238 2.5453522379856777 -1.1009013480113072 2.4795472219840637 -1.1034193397407845 C 2.4555813364160004 -1.1042736583632857 2.4320201280901745 -1.1051954231928267 2.4086837404544807 -1.1061396700913804 C 2.3968270203275144 -1.1243256858279067 2.385425076132199 -1.1428041818446406 2.3744885134854163 -1.1615579702088978 C 2.3455316085964233 -1.2111084503139762 2.320036942335463 -1.2632218862865559 2.2967904829758217 -1.3166392822619013 C 2.2497355125312106 -1.4233391817985122 2.2123028676242447 -1.535906901347567 2.1832335523901873 -1.651577146420442 C 2.1786247282424824 -1.669720176114088 2.1746004378891213 -1.68804306235984 2.1703962909836543 -1.7063209844675655 C 2.221610444195707 -1.7044100086014438 2.274038629134471 -1.702633925149402 2.327725809937975 -1.701105144456505 M 2.724287025261676 -1.4518014811692144 C 2.7170028349014017 -1.531612826166047 2.7112699073030377 -1.612570756682553 2.706413780396188 -1.6939783285793228 C 2.7680596136303617 -1.693416276853993 2.829930267554667 -1.6929666354737294 2.8920032601000916 -1.6927642968526109 C 2.9540762526455158 -1.6929666354737294 3.0159693886388346 -1.693416276853993 3.0776377039420217 -1.6939783285793228 C 3.066621490125557 -1.51149137439924 3.0514685756106656 -1.3319270891908719 3.0257041245215466 -1.1595570660667258 C 3.022455768602229 -1.138640151625708 3.019015867714425 -1.1177534331631627 3.0153848548444877 -1.0968995397269317 C 2.9743775609644283 -1.0964723804157073 2.9332353746702866 -1.0962250776565625 2.892003260100091 -1.0964049342086684 C 2.8508161096679223 -1.0962250776565625 2.809718887511807 -1.0964498983466946 2.76875655776977 -1.0968770576579452 C 2.7651594267276596 -1.117672971495148 2.761697188099628 -1.138581295677417 2.758437288092715 -1.1595795481357394 C 2.7437564970271002 -1.254948484889701 2.733167442521887 -1.3527005209590617 2.7242870252616753 -1.4518014811692144 M 3.062147558391931 -1.1535318715711904 C 3.0927906184569127 -1.3282175478036953 3.1121926440152974 -1.5098052192232507 3.1256594033542 -1.6944504520286001 C 3.143307827529556 -1.6946527906497186 3.161113626188004 -1.6947652009947847 3.1786721220873075 -1.6949900216849163 C 3.273209222287782 -1.6966312127228798 3.366240023864372 -1.6986770810030802 3.4562807102622077 -1.7010376982494653 C 3.5087462879478077 -1.702544819667986 3.5612049597150066 -1.7042834499322703 3.613655193354454 -1.706253538260524 C 3.6094510464490877 -1.6879980982218137 3.605426756095726 -1.6696752119760623 3.600840414017035 -1.651554664351429 C 3.57179358085199 -1.5358619372095408 3.534226043530946 -1.4233616638675257 3.487373411707453 -1.3165718360548615 C 3.464104470278799 -1.263131958010503 3.4386098040178386 -1.2110185220379233 3.409652899128847 -1.1614680419328471 C 3.3987595182931525 -1.142766119722216 3.3873873315697614 -1.1243472253389788 3.375547600435832 -1.1062295983674293 C 3.35184668714148 -1.1052470826737442 3.3281429941312886 -1.1043328080777162 3.3044368161468367 -1.103486785947816 C 3.236820098214319 -1.1008809595849152 3.1691739565892525 -1.0991047424826386 3.101513661234035 -1.0981585355916965 C 3.0849443763713085 -1.0977988224874862 3.06819523495648 -1.097663930073407 3.051513539748691 -1.0974166273142618 C 3.0551556349288282 -1.1160767445952113 3.0587527659709393 -1.1347368618761613 3.062147558391931 -1.1535318715711904 M 3.4554938378467455 -1.7478678480039447 C 3.3655655617939764 -1.7469685652434173 3.2726471705624522 -1.7464289955871006 3.178222480707044 -1.7463390673110477 C 3.162125319293598 -1.7462266569659821 3.1457583730519936 -1.7462266569659821 3.1295712833624947 -1.7461592107589423 L 3.129863550259667 -1.7499811624911854 C 3.1433303095985687 -1.9453728242848403 3.1483887751265374 -2.144159278499488 3.1495803247842367 -2.343013178921175 L 3.192048953150157 -2.3431255892662413 L 3.4826746592836955 -2.345396278236574 C 3.5518519856372888 -2.3460707403069696 3.619275710607853 -2.3468800947914445 3.684451228677098 -2.347824341689998 C 3.683462017640517 -2.146137700572649 3.6645096334623957 -1.9442487208341808 3.6233449650992404 -1.7493067004207892 C 3.568825947742249 -1.7488120949024992 3.5128455958994 -1.7483174893842093 3.455493837846746 -1.7478678480039447 M 4.0637686970676805 -3.2062122186826985 C 4.099253589390878 -3.1403659228210508 4.130208224608519 -3.0721770903760763 4.156417303471047 -3.002119996180939 C 4.095018772996019 -3.0065939279145635 4.025189466641042 -3.011382608614374 3.9481658982018453 -3.0155867555198403 C 3.853266052100936 -3.0210347329499303 3.758320696718382 -3.025658719394878 3.6633405658740252 -3.0294581921009645 C 3.658130683356204 -3.052331622326462 3.6525995480324487 -3.0751306923195028 3.646748798941973 -3.0978486460391155 C 3.597625478148149 -3.2867654719569677 3.52622242696225 -3.469994334414486 3.4233669612268947 -3.629324757510981 C 3.5100803014107775 -3.6254578416407117 3.5914429091695212 -3.6210288740451126 3.6643072948412776 -3.616622388518527 L 3.7520548101997675 -3.610979389196216 C 3.8757286718413395 -3.4962309089528816 3.9817765913765677 -3.3584607900400387 4.063768697067681 -3.2062122186826993 M 3.108528066766148 -3.9428596919689625 C 3.1739391978514235 -3.9300711208198216 3.238310082413343 -3.912441644380146 3.301109469933154 -3.890116758064013 C 3.364059263170093 -3.866398175255095 3.4261997019225565 -3.8387227482998547 3.486046969635675 -3.805471768229343 C 3.5688484298112626 -3.759406008821312 3.6470185837701328 -3.7036279955995814 3.7196581487517575 -3.6401386327063263 C 3.702189581128507 -3.642499249952712 3.6843388183320323 -3.6448373851300837 3.6657011831200954 -3.6470855920314027 C 3.575174715678866 -3.658390390900933 3.4843975479481637 -3.6675880444769513 3.393443327370332 -3.67467109071059 C 3.3775359361043225 -3.6973074762701663 3.3608748779732958 -3.7194047482378245 3.3434881700230203 -3.7409257480924705 C 3.273748791944099 -3.825907968962335 3.1899356386629174 -3.9003685815340288 3.091823889489346 -3.945512576112519 C 3.0973994426046176 -3.944613293351991 3.1029525136508758 -3.9438039388675166 3.108528066766148 -3.9428596919689625 M 3.0627545742552877 -3.925526016759791 C 3.1611585903260306 -3.882203069771369 3.2451066360212915 -3.805741553057502 3.3144863009960033 -3.717544396318748 C 3.3245357858449003 -3.7049994018093866 3.333596059657217 -3.6915101604014713 3.343038528642758 -3.678380632097767 C 3.330605944478463 -3.6792574327892815 3.3181733603141668 -3.680134233480796 3.3055834016667793 -3.6809435879652708 C 3.239621011182073 -3.684945396249619 3.17143289586506 -3.6882952245325846 3.1021206770973877 -3.6908132162620624 C 3.0818418508474883 -3.6913977500564052 3.061270757700417 -3.691779945229629 3.0408120748984118 -3.6922295866098933 C 3.028087223836945 -3.7507728943202463 3.0132940224262645 -3.8083944372010587 2.9934198734186026 -3.864149968353776 C 2.985168954090761 -3.8865421090909154 2.9760412340714044 -3.9086195008618705 2.9643280761155317 -3.9298875381483507 C 2.958392809896049 -3.9397571664451423 2.9522776871244605 -3.950008989915158 2.944656265728988 -3.959496423038725 C 2.9849890975386555 -3.953875905785427 3.024804841761019 -3.9424100505886988 3.062754574255288 -3.9255260167597914 M 2.8618098414153743 -3.9431519588661343 C 2.8648674028011683 -3.9474460340476543 2.8681497848770943 -3.951155575434831 2.871769397988218 -3.9540107981995063 C 2.8734555531642076 -3.9553822044093114 2.8753215648923027 -3.9576528933796435 2.8768053814471735 -3.9583948016570787 C 2.8782442338640175 -3.9590692637274745 2.8795257117977697 -3.95987861821195 2.880807189731522 -3.9608903113175433 C 2.88319028904692 -3.9618795223541237 2.885326085603173 -3.9626214306315592 2.8873045076763346 -3.9631385182188623 C 2.890069802164957 -3.963205964425902 2.8928575787225927 -3.9631834823568886 2.8956228732112157 -3.963205964425902 L 2.896252371143585 -3.963071072011823 C 2.8979610083885876 -3.962801287183664 2.8997595739096433 -3.962756323045638 2.9015356573616855 -3.961339952697807 C 2.9161939663582865 -3.9540557623375325 2.9290087456958065 -3.935058414021385 2.9390582305447035 -3.916195958119317 C 2.9491976436696534 -3.8967489684229055 2.9573811167904553 -3.8755933414814914 2.9647552354267823 -3.8539880731598135 C 2.981796643738782 -3.80241420684355 2.9945664589382757 -3.7482773846597826 3.0054028162026345 -3.6930389410943687 C 2.96770038646751 -3.6937134031647645 2.9298630643183077 -3.6941855266140418 2.8920032601000916 -3.694342901097134 C 2.854140919950579 -3.694167924712245 2.8162802252171972 -3.69373326115434 2.778423847445586 -3.693038941094371 C 2.7892826867788156 -3.7482773846597826 2.8020300199092953 -3.802436688912563 2.8190939102903085 -3.8540330372978397 C 2.826468028926636 -3.8756383056195176 2.834673984116451 -3.8967939325609318 2.844813397241401 -3.9162634043263562 C 2.850096683459501 -3.9256159450358443 2.8552001131254956 -3.9355755016086884 2.8618098414153743 -3.9431519588661343 M 2.839620039299353 -3.959586351314778 C 2.831504012385591 -3.950188846467263 2.8258160489252533 -3.939959505066261 2.8197683723607048 -3.9298200919413113 C 2.8080552144048316 -3.9085745367238447 2.7989499764544887 -3.8864746628838764 2.7906990571266466 -3.86410500421575 C 2.7708249081189846 -3.8083719551320456 2.756031706708304 -3.750750412251233 2.743306855646837 -3.6922071045408806 C 2.7228032087068055 -3.6917574631606165 2.702209633490721 -3.691375267987392 2.6818633610337823 -3.690768252124036 C 2.6140119886837425 -3.688304296997276 2.546193454784336 -3.6850066779326567 2.4784231185334207 -3.6808761417582323 C 2.4657207495409503 -3.6800667872737565 2.453198237100602 -3.6791899865822417 2.4406757246602537 -3.678313185890728 C 2.450163157783821 -3.691487678332458 2.459290877803177 -3.7050443659474133 2.4693628447210876 -3.7176568066638143 C 2.5387649917648125 -3.8058314813335548 2.6227355195290865 -3.882337962185449 2.721184499737856 -3.9256609091738706 C 2.7588000759937974 -3.9426771237503724 2.798699967834375 -3.954106306891495 2.839620039299353 -3.959586351314778 M 2.297869622288456 -3.8056066606434227 C 2.357739372070587 -3.8388576407139343 2.4198573287540377 -3.8665330676691743 2.482807121990976 -3.8902516504780924 C 2.545623559771793 -3.912571019079853 2.610008976484856 -3.9302003593703345 2.6754334892960085 -3.942994584383042 C 2.6813687555154915 -3.9439837954196224 2.687214093458922 -3.9448381140421236 2.693104395540378 -3.9458048430096913 C 2.594655415331608 -3.90072829463824 2.5105499951532555 -3.826042861376415 2.440630760522227 -3.7408358198164158 C 2.423258888068053 -3.7193221214546366 2.406612816178939 -3.6972323341639477 2.390720567312936 -3.6746036445035455 C 2.281479098775403 -3.666115050243279 2.172496001963814 -3.6545772511105117 2.06389873006814 -3.6400037402922454 C 2.136628223325839 -3.7036279955995823 2.214910787629775 -3.7595184191663784 2.297869622288455 -3.8056066606434227 M 1.7201478948564488 -3.206234700751713 C 1.8021175184785485 -3.3584607900400387 1.9080979918067378 -3.4962758730909083 2.0317268893102827 -3.6110468354032554 L 2.119676743289892 -3.616689834725567 C 2.1926085751686877 -3.621118802321166 2.2740611112034843 -3.625570251985778 2.3609093438014463 -3.629437167856047 C 2.258008913928065 -3.470061780621526 2.18642600619006 -3.2868329181640075 2.137302685396235 -3.097826163970099 C 2.131451922510033 -3.0750856537946136 2.1259207882170936 -3.0522641037648004 2.120710918464496 -3.029368263824914 C 2.025707887994522 -3.025587400761088 1.9307399542792107 -3.020970903983259 1.8358181399290012 -3.0155193093127854 C 1.7587271252830876 -3.0113151624073344 1.6888753368590987 -3.0065264817075246 1.6274543243150572 -3.0020525499738993 C 1.6536836176590233 -3.072137593721112 1.684653053818618 -3.14035598304962 1.7201478948564488 -3.206234700751711 M 1.620529847058994 -2.9829652733816987 C 1.6838618354691568 -2.983527325107029 1.756411472174729 -2.9840893768323586 1.8367623868278786 -2.985146034075979 C 1.9208678070062313 -2.98600035269848 2.013359038926505 -2.9869895637350607 2.1114258239620503 -2.9879113285646013 C 2.069406836976394 -2.792654559185025 2.049128010726494 -2.591147774619781 2.0466100189970167 -2.388921563846115 C 1.9539389305246375 -2.3874827114292714 1.86634878964924 -2.385819038322295 1.7860428391341165 -2.3839979907322264 C 1.6821082340861278 -2.3819296403830124 1.5904938028573687 -2.379051935549324 1.5145493737308042 -2.3766913183029383 C 1.514954050973042 -2.5833914608102297 1.5507230227730309 -2.7902040136625867 1.6205298470589935 -2.9829652733816987 M 1.5145493737308042 -2.36093138792469 C 1.5904938028573683 -2.358570770678305 1.6821082340861278 -2.3556705837756033 1.786042839134116 -2.3536022334263893 C 1.8663487896492394 -2.351781185836321 1.953938930524637 -2.350139994798358 2.046587536928003 -2.3487011423815134 C 2.048925672105375 -2.1472842860923222 2.0692719445623142 -1.945125521525696 2.1113358956859973 -1.7497113776630275 C 2.013291592719465 -1.7506331424925685 1.920845324937218 -1.7516223535291489 1.8367623868278782 -1.7524766721516505 C 1.7564564363127548 -1.7535333293952706 1.683929281676196 -1.7540953811206004 1.6206197753350462 -1.754634950776917 C 1.550835433118097 -1.9474186925650416 1.515111425456134 -2.154208763348386 1.5145493737308042 -2.36093138792469 M 1.7202153410634886 -1.531410487544929 C 1.684718787987682 -1.5972696797627353 1.6537565421629525 -1.6654737535348225 1.6275442525911101 -1.7355476741847142 C 1.6889427830661374 -1.7310737424510911 1.7587720894211134 -1.7263075438202948 1.8358181399293236 -1.7220809148458143 C 1.9228012649413653 -1.7170674134558723 2.0186872892826306 -1.7123461789631018 2.1206209901884456 -1.7082544424027009 C 2.125926758475559 -1.685345214078258 2.1312774909006986 -1.662458467822828 2.1372127571201815 -1.6397515781195038 C 2.18635855998302 -1.450812270132635 2.257784093237932 -1.267560925606103 2.3606620410423007 -1.1081855383715817 C 2.2739262187894043 -1.112052454241851 2.192541128961648 -1.1165039039064628 2.119676743289891 -1.1209103894330492 L 2.0319966741384405 -1.1265533887553603 C 1.9083003304278559 -1.2413243510677074 1.802229928823614 -1.3791169520495639 1.7202153410634882 -1.531410487544929 M 2.6754784534340343 -0.7947405321896532 C 2.610049604872278 -0.8075261145565724 2.5456630020801305 -0.8251632943830391 2.4828520861290007 -0.8475059481636156 C 2.4199247749610757 -0.8712020489035206 2.357784336208612 -0.8988999579277737 2.2979370684954943 -0.9321509379982853 C 2.2151131262508934 -0.9782166974063164 2.136898008153997 -1.0340396747660732 2.064213479034346 -1.0975515197283419 C 2.1726280533490767 -1.083038982913671 2.2814228012700006 -1.071523772549384 2.390473264553837 -1.0630190617240736 C 2.4064031369933527 -1.0403526903907472 2.4230866646485216 -1.018225458880453 2.4404958681081457 -0.9966744760661488 C 2.5102352461870705 -0.9116922551962805 2.5940708815372653 -0.8372316426245865 2.6921601486418236 -0.7920876480460963 C 2.6865845955265515 -0.7930094128756373 2.681031524480293 -0.7938187673601118 2.6754784534340343 -0.7947405321896528 M 2.7212294638758814 -0.8120742073988239 C 2.622825447805138 -0.8553971543872461 2.5388774021098777 -0.9318811531701265 2.4694977371351654 -1.0200558278398675 C 2.4594257702172553 -1.032645786487255 2.4503430143359255 -1.0461350278951707 2.4409005453503845 -1.0592870382678883 C 2.45333312951468 -1.0584102375763735 2.4657881957479884 -1.057555918953872 2.478423118533403 -1.056746564469397 C 2.544363026949096 -1.0527222741160358 2.612551142266109 -1.0493499637640569 2.6818633610337814 -1.0468319720345791 C 2.702142187283681 -1.0462249561712231 2.7226907983617386 -1.0458652430670123 2.743171963232757 -1.045393119617735 C 2.7558743322252104 -0.986827329838369 2.770667533635891 -0.9292057869575565 2.7905641647125665 -0.8734502558048391 C 2.7988150840404082 -0.851080597136713 2.807920321990751 -0.8290032053657579 2.8196334799466247 -0.8077351680792777 C 2.8255912282351208 -0.7978655397824865 2.831706351006709 -0.7876137163124706 2.8393052903331677 -0.7781262831889033 C 2.798555756655528 -0.7838787355254819 2.758811725885031 -0.7953055227424373 2.7212294638758814 -0.8120742073988239 M 2.922151714646782 -0.7944482652924814 C 2.919386555222044 -0.7903700686270199 2.9160386201668342 -0.7867191530238276 2.912214640142951 -0.7836119080281221 C 2.9105284849669615 -0.7822180197493047 2.9086399911698537 -0.7799698128479853 2.907156174614983 -0.779205422501537 C 2.905736866004483 -0.7785408594811924 2.904401144821014 -0.7777107502711269 2.903176848399648 -0.7767323949100859 C 2.9010728296861523 -0.7758288505664019 2.8989095086751604 -0.775070185906297 2.8967020125238485 -0.7744617059397534 C 2.893914235966213 -0.7744167418017267 2.891126459408577 -0.7744167418017267 2.888361164919954 -0.7744167418017267 L 2.8877541490565983 -0.7745516342158059 C 2.8860230297425824 -0.7747989369749515 2.8842019821525136 -0.7748439011129777 2.8824483807694845 -0.7762602714608087 C 2.867790071772883 -0.7835444618210832 2.8549977745043766 -0.8025418101372308 2.844903325517453 -0.8214042660392988 C 2.8347863944615166 -0.8408737378047237 2.826580439271701 -0.8620068826771243 2.8192288027043872 -0.8836121509988022 C 2.8021873943923876 -0.9352084993840788 2.7894175791928943 -0.9893453215678463 2.778581221928535 -1.0445837651332601 C 2.8162836516636593 -1.0438868209938508 2.854120973812862 -1.043437179613587 2.892003260100091 -1.0432573230614817 C 2.929930510525347 -1.043414697544574 2.9678127968125763 -1.0438868209938508 3.0055601906857263 -1.0445612830642466 C 2.9947013513523544 -0.9893228394988332 2.9819540182218742 -0.9351635352460526 2.964890127840861 -0.883567186860776 C 2.9575160092045336 -0.8619619185390981 2.949310054014719 -0.8408062915976835 2.9391706408897695 -0.8213593019012722 C 2.933887354671669 -0.8119842791227714 2.928761442936661 -0.80204720461894 2.922151714646782 -0.7944482652924814 M 2.9443639988318164 -0.7780138728438377 C 2.9524800257455794 -0.787411377691352 2.958167989205917 -0.7976632011613676 2.9642156657704652 -0.8078026142863179 C 2.9759288237263393 -0.8290481695037846 2.985034061676682 -0.8511255612747397 2.9932849810045234 -0.8734952199428658 C 3.013159130012185 -0.9292282690265696 3.0279523314228656 -0.986827329838369 3.04065470041532 -1.045393119617735 C 3.061180829424364 -1.0458427609979988 3.0817744046404485 -1.04620247410221 3.102120677097388 -1.0468094899655664 C 3.17143289586506 -1.0493274816950442 3.239621011182073 -1.0526773099780096 3.3055834016667793 -1.056679118262358 C 3.318240806521207 -1.057488472746833 3.330740836892542 -1.0583652734383473 3.343240867263877 -1.0592420741298612 C 3.333798398278336 -1.0460675816881309 3.324693160327993 -1.0325558582112024 3.314621193410083 -1.0199658995638146 C 3.2452190463663575 -0.9317687428250605 3.161248518602084 -0.8552847440421796 3.0627995383933144 -0.8119617970537583 C 3.0251839396880693 -0.7949411700879745 2.9852845016320746 -0.7835045430066239 2.9443639988318173 -0.7780138728438382 M 3.4861144158427146 -0.9320160455842061 C 3.4262671481295963 -0.8987425834446809 3.3641267093771323 -0.8710671564894406 3.3011769161401934 -0.8473710557495364 C 3.23835745699087 -0.8250312154620922 3.1739635928063934 -0.8073941050360256 3.108528066766144 -0.7946056397755727 C 3.102615282615678 -0.7936164287389937 3.096792426741261 -0.7927621101164921 3.0908796425907914 -0.791817863217938 C 3.1893286227995614 -0.8368944115893888 3.273434042977914 -0.9115573627822009 3.343353277608943 -0.9967868864112135 C 3.360707981209233 -1.0182664457394046 3.377331720527648 -1.0403264552453932 3.393196024611194 -1.0629291334480313 C 3.5024293991519895 -1.0714147200357833 3.6114048798702125 -1.0829450096164535 3.719995379786918 -1.0975065555903116 C 3.647265886529278 -1.0339497464900207 3.569028286363368 -0.9780818049922373 3.4861144158427146 -0.9320160455842061 M 4.06383614327472 -1.5313655234069032 C 3.981889001721634 -1.3791843982566037 3.875908528393445 -1.2414142793437604 3.7523470770969394 -1.1266433170314127 C 3.7245817218656465 -1.124867233579371 3.6953100680104702 -1.123001221851276 3.6643072948412776 -1.1209778356400886 C 3.5839529803374064 -1.1161199046909163 3.5035621747226133 -1.1118856541854294 3.42314214053687 -1.1082754666476404 C 3.525997606272118 -1.2676283718131427 3.597558031941109 -1.450812270132635 3.646681352734935 -1.6397740601885173 C 3.6526166189544176 -1.662435985753815 3.657967351379557 -1.6853002499402319 3.6632506375976575 -1.7081645141266484 C 3.7652293026414982 -1.7122562506870493 3.8611602911207905 -1.7169774851798199 3.9481658982018453 -1.722013468638775 C 4.025234430779069 -1.726240097613255 4.095086219203058 -1.731028778313065 4.156507231747099 -1.7355027100466902 C 4.130281163741704 -1.665434486922528 4.099319337520965 -1.5972313374600557 4.06383614327472 -1.5313655234069037 M 4.163476673141189 -1.7547023969839568 C 4.100122202662012 -1.7541628273276397 4.027572565956441 -1.75360077560231 3.947221651303291 -1.7525441183586903 C 3.863116231124938 -1.751689799736189 3.7706474812736777 -1.7507230707686219 3.6725806962381324 -1.7497788238700678 C 3.714599683223789 -1.9450805573876702 3.734856027404675 -2.1468571267810725 3.7373965012031665 -2.3486112141054614 C 3.8300451076065323 -2.3500500665223054 3.91763524848193 -2.3517137396292815 3.997941198997053 -2.3535347872193504 C 4.101898286114055 -2.355580655499551 4.193490235273801 -2.358503324471266 4.2694346644003645 -2.3608864237866642 C 4.269029987158127 -2.154208763348386 4.233238533289125 -1.9474411746340552 4.163476673141189 -1.7547023969839568" fill="#382d5e" transform="matrix(1,0,0,1,0,0)" fill-rule="nonzero"></path></g></g></g><defs><clipPath id="SvgjsClipPath1003"><path d=" M 0.3874558078924282 -4.430208331971512 h 5.009107427183894 v 4.180208331971512 h -5.009107427183894 Z"></path></clipPath><clipPath id="a1f997a0f-3223-4f1d-87fa-4321650129feca23a625-cd42-45cf-8214-9dadc13a4f5d"><path d=" M 0.3874558078924282 -0.25 L 5.396550712307754 -0.25 L 5.396550712307754 -4.430203501967935 L 0.3874558078924282 -4.430203501967935 Z"></path></clipPath></defs></svg>